# xmcd CD database file
#
# Track frame offsets:
#	150
#	16648
#	36966
#	55558
#	70682
#	88638
#	107554
#	124796
#	141376
#	161480
#	177503
#	206146
#
# Disc length: 3416 seconds
#
# Revision: 2
# Processed by: cddbd v1.5.2PL0 Copyright (c) Steve Scherf et al.
# Submitted via: CDex 1.70beta2
#
DISCID=9e0d560c
DTITLE=Novaspace - Cubes
DYEAR=2004
DGENRE=New Age
TTITLE0=Run To You
TTITLE1=Come Out Of Your Darkness
TTITLE2=It's Too Late
TTITLE3=Beds Are Burning
TTITLE4=Summer Of Love
TTITLE5=Wicked Game
TTITLE6=Taste My Love
TTITLE7=All Trough The Night
TTITLE8=Your Eyes
TTITLE9=Gimme More
TTITLE10=Homeless
TTITLE11=Beds Are Burning [Video]
EXTD=YEAR: 2004
EXTT0=
EXTT1=
EXTT2=
EXTT3=
EXTT4=
EXTT5=
EXTT6=
EXTT7=
EXTT8=
EXTT9=
EXTT10=
EXTT11=
PLAYORDER=
